<mxfile host="app.diagrams.net" agent="Mozilla/5.0 (Macintosh; Intel Mac OS X 10_15_7) AppleWebKit/605.1.15 (KHTML, like Gecko) Version/18.2 Safari/605.1.15" version="26.0.3">
  <diagram name="Page-1" id="O3BzPAZizDyyOeXZ8r4P">
    <mxGraphModel dx="4254" dy="2571" grid="1" gridSize="10" guides="1" tooltips="1" connect="1" arrows="1" fold="1" page="1" pageScale="1" pageWidth="827" pageHeight="1169" math="0" shadow="0">
      <root>
        <mxCell id="0" />
        <mxCell id="1" parent="0" />
        <mxCell id="U_2VtgyoAezzmbxBk8lF-1" value="AWS Cloud" style="points=[[0,0],[0.25,0],[0.5,0],[0.75,0],[1,0],[1,0.25],[1,0.5],[1,0.75],[1,1],[0.75,1],[0.5,1],[0.25,1],[0,1],[0,0.75],[0,0.5],[0,0.25]];outlineConnect=0;gradientColor=none;html=1;whiteSpace=wrap;fontSize=16;fontStyle=1;shape=mxgraph.aws4.group;grIcon=mxgraph.aws4.group_aws_cloud_alt;strokeColor=#232F3E;verticalAlign=top;align=left;spacingLeft=30;fontColor=#232F3E;dashed=0;fillColor=none;strokeWidth=3;" vertex="1" parent="1">
          <mxGeometry x="-550" y="990" width="410" height="405" as="geometry" />
        </mxCell>
        <mxCell id="U_2VtgyoAezzmbxBk8lF-17" value="MongoDB Atlas" style="swimlane;fontStyle=1;horizontal=1;collapsible=0;startSize=28;swimlaneLine=0;swimlaneFillColor=none;fillColor=none;rounded=0;whiteSpace=wrap;html=1;absoluteArcSize=1;arcSize=0;strokeColor=#FF3399;verticalAlign=top;align=left;spacingLeft=40;dashed=0;strokeWidth=3;container=1;fontSize=16;spacingBottom=0;spacingTop=14;" vertex="1" parent="1">
          <mxGeometry x="-517.17" y="1460" width="261" height="237" as="geometry" />
        </mxCell>
        <mxCell id="U_2VtgyoAezzmbxBk8lF-18" value="" style="dashed=0;outlineConnect=0;html=1;align=center;labelPosition=center;verticalLabelPosition=bottom;verticalAlign=top;shape=mxgraph.weblogos.mongodb" vertex="1" parent="U_2VtgyoAezzmbxBk8lF-17">
          <mxGeometry x="2" width="30.11" height="63" as="geometry" />
        </mxCell>
        <mxCell id="U_2VtgyoAezzmbxBk8lF-19" value="MongoDB&#xa;(NoSQL)" style="shape=rect;fillColor=#0F62FE;aspect=fixed;resizable=0;labelPosition=center;verticalLabelPosition=bottom;align=center;verticalAlign=top;strokeColor=none;fontSize=14;fontStyle=1" vertex="1" parent="U_2VtgyoAezzmbxBk8lF-17">
          <mxGeometry x="98" y="89" width="48" height="48" as="geometry" />
        </mxCell>
        <mxCell id="U_2VtgyoAezzmbxBk8lF-20" value="" style="fillColor=#ffffff;strokeColor=none;dashed=0;outlineConnect=0;html=1;labelPosition=center;verticalLabelPosition=bottom;verticalAlign=top;part=1;movable=0;resizable=0;rotatable=0;shape=mxgraph.ibm_cloud.database--mongodb" vertex="1" parent="U_2VtgyoAezzmbxBk8lF-19">
          <mxGeometry width="24" height="24" relative="1" as="geometry">
            <mxPoint x="12" y="12" as="offset" />
          </mxGeometry>
        </mxCell>
        <mxCell id="U_2VtgyoAezzmbxBk8lF-22" value="Region eu-west-3 (Paris)" style="points=[[0,0],[0.25,0],[0.5,0],[0.75,0],[1,0],[1,0.25],[1,0.5],[1,0.75],[1,1],[0.75,1],[0.5,1],[0.25,1],[0,1],[0,0.75],[0,0.5],[0,0.25]];outlineConnect=0;gradientColor=none;html=1;whiteSpace=wrap;fontSize=16;fontStyle=1;container=1;pointerEvents=0;collapsible=0;recursiveResize=0;shape=mxgraph.aws4.group;grIcon=mxgraph.aws4.group_region;strokeColor=#00A4A6;fillColor=none;verticalAlign=top;align=left;spacingLeft=30;fontColor=#147EBA;strokeWidth=3;" vertex="1" parent="1">
          <mxGeometry x="-395" y="1050" width="225" height="312" as="geometry" />
        </mxCell>
        <mxCell id="U_2VtgyoAezzmbxBk8lF-24" style="edgeStyle=orthogonalEdgeStyle;rounded=0;orthogonalLoop=1;jettySize=auto;html=1;exitX=0.5;exitY=1;exitDx=0;exitDy=0;" edge="1" parent="U_2VtgyoAezzmbxBk8lF-22">
          <mxGeometry relative="1" as="geometry">
            <mxPoint x="1032.999999999999" y="490.99999999999955" as="sourcePoint" />
            <mxPoint x="1032.999999999999" y="490.99999999999955" as="targetPoint" />
          </mxGeometry>
        </mxCell>
        <mxCell id="U_2VtgyoAezzmbxBk8lF-25" style="edgeStyle=orthogonalEdgeStyle;rounded=0;orthogonalLoop=1;jettySize=auto;html=1;exitX=0.5;exitY=1;exitDx=0;exitDy=0;" edge="1" parent="U_2VtgyoAezzmbxBk8lF-22">
          <mxGeometry relative="1" as="geometry">
            <mxPoint x="1032.999999999999" y="490.99999999999955" as="sourcePoint" />
            <mxPoint x="1032.999999999999" y="490.99999999999955" as="targetPoint" />
          </mxGeometry>
        </mxCell>
        <mxCell id="U_2VtgyoAezzmbxBk8lF-26" style="edgeStyle=orthogonalEdgeStyle;rounded=0;orthogonalLoop=1;jettySize=auto;html=1;exitX=0.5;exitY=1;exitDx=0;exitDy=0;" edge="1" parent="U_2VtgyoAezzmbxBk8lF-22">
          <mxGeometry relative="1" as="geometry">
            <mxPoint x="528.96" y="406.31" as="sourcePoint" />
            <mxPoint x="528.96" y="406.31" as="targetPoint" />
          </mxGeometry>
        </mxCell>
        <mxCell id="U_2VtgyoAezzmbxBk8lF-37" value="&lt;div&gt;&lt;b&gt;S3&amp;nbsp;&lt;/b&gt;&lt;/div&gt;&lt;div&gt;&lt;b&gt;(DB Backup)&lt;/b&gt;&lt;/div&gt;" style="sketch=0;points=[[0,0,0],[0.25,0,0],[0.5,0,0],[0.75,0,0],[1,0,0],[0,1,0],[0.25,1,0],[0.5,1,0],[0.75,1,0],[1,1,0],[0,0.25,0],[0,0.5,0],[0,0.75,0],[1,0.25,0],[1,0.5,0],[1,0.75,0]];outlineConnect=0;fontColor=#232F3E;fillColor=#7AA116;strokeColor=#ffffff;dashed=0;verticalLabelPosition=bottom;verticalAlign=top;align=center;html=1;fontSize=14;fontStyle=0;aspect=fixed;shape=mxgraph.aws4.resourceIcon;resIcon=mxgraph.aws4.s3;shadow=0;" vertex="1" parent="U_2VtgyoAezzmbxBk8lF-22">
          <mxGeometry x="14" y="180" width="78" height="78" as="geometry" />
        </mxCell>
        <mxCell id="U_2VtgyoAezzmbxBk8lF-93" style="edgeStyle=orthogonalEdgeStyle;rounded=1;orthogonalLoop=1;jettySize=auto;html=1;strokeWidth=3;strokeColor=#FFD966;flowAnimation=0;startArrow=classic;startFill=1;curved=0;exitX=1;exitY=0.75;exitDx=0;exitDy=0;exitPerimeter=0;entryX=0.021;entryY=0.122;entryDx=0;entryDy=0;entryPerimeter=0;" edge="1" parent="1" source="U_2VtgyoAezzmbxBk8lF-94" target="U_2VtgyoAezzmbxBk8lF-19">
          <mxGeometry relative="1" as="geometry">
            <Array as="points">
              <mxPoint x="-418" y="1160" />
            </Array>
          </mxGeometry>
        </mxCell>
        <mxCell id="U_2VtgyoAezzmbxBk8lF-94" value="&lt;span&gt;Lambda (DB backup)&lt;br&gt;&lt;/span&gt;" style="sketch=0;points=[[0,0,0],[0.25,0,0],[0.5,0,0],[0.75,0,0],[1,0,0],[0,1,0],[0.25,1,0],[0.5,1,0],[0.75,1,0],[1,1,0],[0,0.25,0],[0,0.5,0],[0,0.75,0],[1,0.25,0],[1,0.5,0],[1,0.75,0]];outlineConnect=0;fontColor=#232F3E;fillColor=#ED7100;strokeColor=#ffffff;dashed=0;verticalLabelPosition=bottom;verticalAlign=top;align=center;html=1;fontSize=14;fontStyle=1;aspect=fixed;shape=mxgraph.aws4.resourceIcon;resIcon=mxgraph.aws4.lambda;" vertex="1" parent="1">
          <mxGeometry x="-515" y="1102" width="78" height="78" as="geometry" />
        </mxCell>
        <mxCell id="U_2VtgyoAezzmbxBk8lF-95" value="&lt;span&gt;Cloudwatch&lt;/span&gt;" style="sketch=0;points=[[0,0,0],[0.25,0,0],[0.5,0,0],[0.75,0,0],[1,0,0],[0,1,0],[0.25,1,0],[0.5,1,0],[0.75,1,0],[1,1,0],[0,0.25,0],[0,0.5,0],[0,0.75,0],[1,0.25,0],[1,0.5,0],[1,0.75,0]];points=[[0,0,0],[0.25,0,0],[0.5,0,0],[0.75,0,0],[1,0,0],[0,1,0],[0.25,1,0],[0.5,1,0],[0.75,1,0],[1,1,0],[0,0.25,0],[0,0.5,0],[0,0.75,0],[1,0.25,0],[1,0.5,0],[1,0.75,0]];outlineConnect=0;fontColor=#232F3E;fillColor=#E7157B;strokeColor=#ffffff;dashed=0;verticalLabelPosition=bottom;verticalAlign=top;align=center;html=1;fontSize=14;fontStyle=1;aspect=fixed;shape=mxgraph.aws4.resourceIcon;resIcon=mxgraph.aws4.cloudwatch_2;" vertex="1" parent="1">
          <mxGeometry x="-517.1700000000001" y="1218" width="78" height="78" as="geometry" />
        </mxCell>
        <mxCell id="U_2VtgyoAezzmbxBk8lF-101" style="edgeStyle=orthogonalEdgeStyle;rounded=0;orthogonalLoop=1;jettySize=auto;html=1;entryX=0.5;entryY=0;entryDx=0;entryDy=0;entryPerimeter=0;strokeWidth=3;strokeColor=#FFD966;flowAnimation=1;" edge="1" parent="1" source="U_2VtgyoAezzmbxBk8lF-94" target="U_2VtgyoAezzmbxBk8lF-37">
          <mxGeometry relative="1" as="geometry">
            <Array as="points">
              <mxPoint x="-342" y="1141" />
            </Array>
          </mxGeometry>
        </mxCell>
      </root>
    </mxGraphModel>
  </diagram>
</mxfile>
